HIERARCHY
ROOT Hips
{
  OFFSET 29.8043 98.5072 -14.5193
  CHANNELS 6 Xposition Yposition Zposition Zrotation Xrotation Yrotation
  JOINT spine
  {
    OFFSET 0 8.30104 0.477351
    CHANNELS 3 Zrotation Xrotation Yrotation
    JOINT spine1
    {
      OFFSET 0 10.4565 0
      CHANNELS 3 Zrotation Xrotation Yrotation
      JOINT spine2
      {
        OFFSET 0 10.0192 0
        CHANNELS 3 Zrotation Xrotation Yrotation
        JOINT Neck
        {
          OFFSET 0 25.7235 1.22641
          CHANNELS 3 Zrotation Xrotation Yrotation
          JOINT Head
          {
            OFFSET 0 7.77175 0
            CHANNELS 3 Zrotation Xrotation Yrotation
            End Site
            {
              OFFSET 0 18.812 -6.20394
            }
          }
        }
        JOINT RightShoulder
        {
          OFFSET -4.2188 10.82 -0.587439
          CHANNELS 3 Zrotation Xrotation Yrotation
          JOINT RightArm
          {
            OFFSET 0 14.1914 0
            CHANNELS 3 Zrotation Xrotation Yrotation
            JOINT RightArmRoll
            {
              OFFSET 0 7.16408 0
              CHANNELS 3 Zrotation Xrotation Yrotation
              JOINT RightForeArm
              {
                OFFSET 0 20.8665 0
                CHANNELS 3 Zrotation Xrotation Yrotation
                JOINT RightForeArmRoll
                {
                  OFFSET 0 8.03921 0
                  CHANNELS 3 Zrotation Xrotation Yrotation
                  JOINT RightHand
                  {
                    OFFSET 0 16.133 0
                    CHANNELS 3 Zrotation Xrotation Yrotation
                    End Site
                    {
                      OFFSET 0 0 0
                    }
                  }
                }
              }
            }
          }
        }
        JOINT LeftShoulder
        {
          OFFSET 4.2188 10.82 -0.587439
          CHANNELS 3 Zrotation Xrotation Yrotation
          JOINT LeftArm
          {
            OFFSET 0 14.1914 0
            CHANNELS 3 Zrotation Xrotation Yrotation
            JOINT LeftArmRoll
            {
              OFFSET 0 7.16409 0
              CHANNELS 3 Zrotation Xrotation Yrotation
              JOINT LeftForeArm
              {
                OFFSET 0 20.8665 0
                CHANNELS 3 Zrotation Xrotation Yrotation
                JOINT LeftForeArmRoll
                {
                  OFFSET 0 8.03921 0
                  CHANNELS 3 Zrotation Xrotation Yrotation
                  JOINT LeftHand
                  {
                    OFFSET 0 16.133 0
                    CHANNELS 3 Zrotation Xrotation Yrotation
                    End Site
                    {
                      OFFSET 0 0 0
                    }
                  }
                }
              }
            }
          }
        }
      }
    }
  }
  JOINT RightUpLeg
  {
    OFFSET -7.35773 -1.34921 -1.13182
    CHANNELS 3 Zrotation Xrotation Yrotation
    JOINT RightUpLegRoll
    {
      OFFSET 0 18.9168 0
      CHANNELS 3 Zrotation Xrotation Yrotation
      JOINT RightLeg
      {
        OFFSET 0 -23.4256 0
        CHANNELS 3 Zrotation Xrotation Yrotation
        JOINT RightLegRoll
        {
          OFFSET 0 23.5023 0
          CHANNELS 3 Zrotation Xrotation Yrotation
          JOINT RightFoot
          {
            OFFSET 0 19.5617 0
            CHANNELS 3 Zrotation Xrotation Yrotation
            JOINT RightToeBase
            {
              OFFSET 0 16.3526 0
              CHANNELS 3 Zrotation Xrotation Yrotation
              End Site
              {
                OFFSET 0.00693125 7.91944 -0.912837
              }
            }
          }
        }
      }
    }
  }
  JOINT LeftUpLeg
  {
    OFFSET 7.35773 -1.34921 -1.13182
    CHANNELS 3 Zrotation Xrotation Yrotation
    JOINT LeftUpLegRoll
    {
      OFFSET 0 18.9169 0
      CHANNELS 3 Zrotation Xrotation Yrotation
      JOINT LeftLeg
      {
        OFFSET 0 23.4255 0
        CHANNELS 3 Zrotation Xrotation Yrotation
        JOINT LeftLegRoll
        {
          OFFSET 0 23.7195 0
          CHANNELS 3 Zrotation Xrotation Yrotation
          JOINT LeftFoot
          {
            OFFSET 0 19.3444 0
            CHANNELS 3 Zrotation Xrotation Yrotation
            JOINT LeftToeBase
            {
              OFFSET 0 16.3526 0
              CHANNELS 3 Zrotation Xrotation Yrotation
              End Site
              {
                OFFSET -0.0310629 7.91944 -0.912837
              }
            }
          }
        }
      }
    }
  }
}
MOTION
Frames: 13
Frame Time: 0.00208333
29.8561 98.8606 -1.00728 0.968012 -4.42641 3.30945 0.0840186 -0.656896 0.245638 0.168249 2.6894 0.4814 0.162656 4.33445 0.478981 -0.402818 19.0421 -2.77418 -0.709522 -7.09407 -3.00921 74.5998 -0.532433 -2.07287 96.6772 28.2105 22.3112 2.04968e-005 -2.58426e-006 -5.72509e-007 8.80542 0.0674917 -0.658202 -8.55126e-006 7.49252e-006 -3.13912 8.02903 -4.95145 0.697649 -67.1853 4.57364 -1.34192 -101.122 18.2678 -14.2882 -3.27399e-006 -1.11029e-006 -1.08128e-006 -9.78047 0.896763 0.58258 5.15968e-006 -4.37175e-007 3.00001 -8.02898 -4.95145 -0.697674 173.578 -3.45067 2.60098 -180 7.01516e-015 178.796 176.108 5.2544 179.729 -4.1166e-006 -2.10886e-006 0.0620599 -18.386 67.5559 19.1639 8.13449 25.2328 -3.48688 -174.387 -2.26355 0.344009 4.54188e-006 -4.6773e-006 -1.2593 -2.7061 -8.55416 0.532533 4.82388e-006 -4.96994e-006 -0.0978106 18.174 67.1314 -18.8199 -8.13582 25.2327 3.48745 
29.8163 98.8575 -0.950427 0.968197 -4.42829 3.31305 0.0849993 -0.656164 0.245945 0.169837 2.69086 0.482074 0.164238 4.33591 0.479628 -0.413368 19.0509 -2.77413 -0.698179 -7.09612 -3.01088 74.5817 -0.536766 -2.07293 96.68 28.1811 22.3371 2.04968e-005 -2.58426e-006 -5.72509e-007 8.79338 0.0674532 -0.65874 -8.55126e-006 7.49252e-006 -3.13912 8.02903 -4.95145 0.697649 -67.1893 4.57841 -1.3437 -101.115 18.2401 -14.297 -3.27399e-006 -1.11029e-006 -1.08128e-006 -9.78618 0.886787 0.580922 5.15968e-006 -4.37175e-007 3.00001 -8.02898 -4.95145 -0.697674 173.579 -3.45462 2.60236 -180 7.01516e-015 178.796 176.106 5.25662 179.729 -4.1166e-006 -2.10886e-006 0.0620396 -18.3857 67.5555 19.1635 8.13449 25.2328 -3.48688 -174.382 -2.25389 0.334206 4.54188e-006 -4.6773e-006 -1.2593 -2.71333 -8.57989 0.530934 4.82388e-006 -4.96994e-006 -0.0977582 18.1784 67.137 -18.8247 -8.13582 25.2327 3.48745 
29.8251 98.8584 -0.956592 0.968456 -4.43024 3.31653 0.0860041 -0.655459 0.246278 0.171449 2.69227 0.482806 0.165843 4.33733 0.480335 -0.424528 19.0596 -2.77396 -0.686339 -7.09774 -3.01256 74.5633 -0.541144 -2.07297 96.683 28.1521 22.3629 2.04968e-005 -2.58426e-006 -5.72509e-007 8.78123 0.0674173 -0.65938 -8.55126e-006 7.49252e-006 -3.13912 8.02903 -4.95145 0.697649 -67.1938 4.58345 -1.34554 -101.108 18.2123 -14.3059 -3.27399e-006 -1.11029e-006 -1.08128e-006 -9.79202 0.876822 0.57926 5.15968e-006 -4.37175e-007 3.00001 -8.02898 -4.95145 -0.697674 173.581 -3.45877 2.60363 -180 7.01516e-015 178.796 176.104 5.25861 179.729 -4.1166e-006 -2.10886e-006 0.0620094 -18.3855 67.5552 19.1633 8.13449 25.2328 -3.48688 -174.377 -2.24421 0.324132 4.54188e-006 -4.6773e-006 -1.2593 -2.72087 -8.60596 0.529244 4.82388e-006 -4.96994e-006 -0.0976802 18.183 67.1429 -18.8296 -8.13582 25.2327 3.48745 
29.823 98.8515 -0.941618 0.968768 -4.43223 3.31993 0.0870258 -0.654774 0.246628 0.173077 2.69365 0.48358 0.167464 4.3387 0.481082 -0.436114 19.0684 -2.77371 -0.674151 -7.09906 -3.01424 74.5445 -0.545552 -2.073 96.6862 28.1234 22.3886 2.04968e-005 -2.58426e-006 -5.72509e-007 8.769 0.0673833 -0.660093 -8.55126e-006 7.49252e-006 -3.13912 8.02903 -4.95145 0.697649 -67.1986 4.58867 -1.34742 -101.1 18.1845 -14.3149 -3.27399e-006 -1.11029e-006 -1.08128e-006 -9.79796 0.866865 0.577595 5.15968e-006 -4.37175e-007 3.00001 -8.02898 -4.95145 -0.697674 173.582 -3.46306 2.60482 -180 7.01516e-015 178.796 176.103 5.26045 179.729 -4.1166e-006 -2.10886e-006 0.0619722 -18.3854 67.5551 19.1632 8.13449 25.2328 -3.48688 -174.372 -2.2345 0.313867 4.54188e-006 -4.6773e-006 -1.2593 -2.72862 -8.63227 0.527492 4.82388e-006 -4.96994e-006 -0.0975842 18.1877 67.149 -18.8348 -8.13582 25.2327 3.48745 
29.8162 98.8602 -0.930453 0.969109 -4.43424 3.32329 0.0880571 -0.654099 0.246987 0.174715 2.695 0.484378 0.169094 4.34005 0.481852 -0.447945 19.0771 -2.77342 -0.661765 -7.10021 -3.01593 74.5255 -0.549979 -2.07301 96.6896 28.0949 22.4142 2.04968e-005 -2.58426e-006 -5.72509e-007 8.75672 0.0673504 -0.660847 -8.55126e-006 7.49252e-006 -3.13912 8.02903 -4.95145 0.697649 -67.2036 4.59399 -1.34933 -101.092 18.1566 -14.3239 -3.27399e-006 -1.11029e-006 -1.08128e-006 -9.80395 0.856913 0.575929 5.15968e-006 -4.37175e-007 3.00001 -8.02898 -4.95145 -0.697674 173.583 -3.46743 2.60596 -180 7.01516e-015 178.796 176.101 5.26221 179.73 -4.1166e-006 -2.10886e-006 0.061931 -18.3853 67.555 19.1631 8.13449 25.2328 -3.48688 -174.367 -2.22479 0.303494 4.54188e-006 -4.6773e-006 -1.2593 -2.7365 -8.65872 0.525703 4.82388e-006 -4.96994e-006 -0.0974781 18.1925 67.1552 -18.84 -8.13582 25.2327 3.48745 
29.8686 98.8494 -0.993335 0.969457 -4.43626 3.32663 0.0890909 -0.653427 0.24735 0.176355 2.69635 0.485181 0.170726 4.3414 0.482629 -0.459837 19.0858 -2.77311 -0.649329 -7.10131 -3.01761 74.5065 -0.55441 -2.07302 96.693 28.0664 22.4398 2.04968e-005 -2.58426e-006 -5.72509e-007 8.74443 0.0673178 -0.66161 -8.55126e-006 7.49252e-006 -3.13912 8.02903 -4.95145 0.697649 -67.2087 4.59934 -1.35124 -101.084 18.1287 -14.3329 -3.27399e-006 -1.11029e-006 -1.08128e-006 -9.80994 0.846961 0.574262 5.15968e-006 -4.37175e-007 3.00001 -8.02898 -4.95145 -0.697674 173.584 -3.47181 2.6071 -180 7.01516e-015 178.796 176.099 5.26393 179.73 -4.1166e-006 -2.10886e-006 0.0618889 -18.3853 67.555 19.163 8.13449 25.2328 -3.48688 -174.362 -2.21507 0.293093 4.54188e-006 -4.6773e-006 -1.2593 -2.74441 -8.6852 0.523905 4.82388e-006 -4.96994e-006 -0.0973694 18.1974 67.1614 -18.8453 -8.13582 25.2327 3.48745 
29.8535 98.8454 -0.96868 0.969791 -4.43826 3.32999 0.0901198 -0.652749 0.247707 0.17799 2.6977 0.485973 0.172353 4.34276 0.483394 -0.471607 19.0946 -2.77283 -0.636992 -7.1025 -3.01929 74.4876 -0.558832 -2.07304 96.6964 28.0379 22.4654 2.04968e-005 -2.58426e-006 -5.72509e-007 8.73216 0.0672846 -0.662354 -8.55126e-006 7.49252e-006 -3.13912 8.02903 -4.95145 0.697649 -67.2137 4.60464 -1.35314 -101.076 18.1009 -14.3419 -3.27399e-006 -1.11029e-006 -1.08128e-006 -9.81592 0.837008 0.572596 5.15968e-006 -4.37175e-007 3.00001 -8.02898 -4.95145 -0.697674 173.586 -3.47616 2.60826 -180 7.01516e-015 178.796 176.097 5.2657 179.73 -4.1166e-006 -2.10886e-006 0.0618487 -18.3852 67.5549 19.1629 8.13449 25.2328 -3.48688 -174.357 -2.20536 0.282747 4.54188e-006 -4.6773e-006 -1.2593 -2.75226 -8.71162 0.522125 4.82388e-006 -4.96994e-006 -0.0972658 18.2022 67.1675 -18.8505 -8.13582 25.2327 3.48745 
29.8552 98.848 -0.976401 0.970089 -4.44024 3.33342 0.0911367 -0.652058 0.248052 0.179613 2.69909 0.486735 0.173969 4.34414 0.484129 -0.483072 19.1033 -2.7726 -0.624904 -7.10391 -3.02097 74.4688 -0.563231 -2.07307 96.6996 28.0091 22.4911 2.04968e-005 -2.58426e-006 -5.72509e-007 8.71995 0.0672501 -0.663046 -8.55126e-006 7.49252e-006 -3.13912 8.02903 -4.95145 0.697649 -67.2184 4.60981 -1.35501 -101.069 18.073 -14.3509 -3.27399e-006 -1.11029e-006 -1.08128e-006 -9.82183 0.827049 0.570932 5.15968e-006 -4.37175e-007 3.00001 -8.02898 -4.95145 -0.697674 173.587 -3.48041 2.60947 -180 7.01516e-015 178.796 176.095 5.2676 179.73 -4.1166e-006 -2.10886e-006 0.0618135 -18.385 67.5547 19.1628 8.13449 25.2328 -3.48688 -174.352 -2.19566 0.272538 4.54188e-006 -4.6773e-006 -1.2593 -2.75996 -8.73786 0.52039 4.82388e-006 -4.96994e-006 -0.097175 18.2069 67.1736 -18.8556 -8.13582 25.2327 3.48745 
29.8548 98.8463 -0.976881 0.970327 -4.44216 3.33694 0.0921342 -0.651345 0.248377 0.181217 2.70052 0.48745 0.175567 4.34557 0.484818 -0.494049 19.1121 -2.77247 -0.613213 -7.10566 -3.02265 74.4505 -0.567596 -2.07311 96.7028 27.98 22.5168 2.04968e-005 -2.58426e-006 -5.72509e-007 8.70783 0.0672134 -0.663655 -8.55126e-006 7.49252e-006 -3.13912 8.02903 -4.95145 0.697649 -67.2227 4.61476 -1.35683 -101.061 18.0453 -14.3597 -3.27399e-006 -1.11029e-006 -1.08128e-006 -9.82764 0.81708 0.569272 5.15968e-006 -4.37175e-007 3.00001 -8.02898 -4.95145 -0.697674 173.588 -3.4845 2.61077 -180 7.01516e-015 178.796 176.093 5.26966 179.73 -4.1166e-006 -2.10886e-006 0.0617862 -18.3848 67.5544 19.1625 8.13449 25.2328 -3.48688 -174.346 -2.18598 0.262546 4.54188e-006 -4.6773e-006 -1.2593 -2.76742 -8.76383 0.518727 4.82388e-006 -4.96994e-006 -0.0971047 18.2114 67.1794 -18.8605 -8.13582 25.2327 3.48745 
29.8565 98.8457 -0.957685 0.970484 -4.44402 3.34059 0.0931051 -0.650602 0.248674 0.182796 2.702 0.4881 0.17714 4.34706 0.485442 -0.504355 19.1209 -2.77246 -0.60207 -7.10789 -3.02432 74.4326 -0.571911 -2.07319 96.7056 27.9504 22.5427 2.04968e-005 -2.58426e-006 -5.72509e-007 8.69584 0.0671739 -0.664152 -8.55126e-006 7.49252e-006 -3.13912 8.02903 -4.95145 0.697649 -67.2266 4.61943 -1.35859 -101.055 18.0177 -14.3685 -3.27399e-006 -1.11029e-006 -1.08128e-006 -9.8333 0.8071 0.567616 5.15968e-006 -4.37175e-007 3.00001 -8.02898 -4.95145 -0.697674 173.589 -3.48837 2.61219 -180 7.01516e-015 178.796 176.091 5.27196 179.73 -4.1166e-006 -2.10886e-006 0.0617699 -18.3844 67.5539 19.1621 8.13449 25.2328 -3.48688 -174.342 -2.17632 0.252853 4.54188e-006 -4.6773e-006 -1.2593 -2.77454 -8.78942 0.517163 4.82388e-006 -4.96994e-006 -0.0970625 18.2158 67.1849 -18.8652 -8.13582 25.2327 3.48745 
29.8643 98.8484 -0.962285 0.970538 -4.44579 3.3444 0.0940423 -0.649822 0.248937 0.184342 2.70357 0.488667 0.178681 4.34862 0.485984 -0.513807 19.1297 -2.77261 -0.591622 -7.11071 -3.02598 74.4153 -0.576163 -2.07329 96.7082 27.9203 22.5687 2.04968e-005 -2.58426e-006 -5.72509e-007 8.68401 0.0671305 -0.664505 -8.55126e-006 7.49252e-006 -3.13912 8.02903 -4.95145 0.697649 -67.2298 4.62372 -1.36026 -101.049 17.9902 -14.3772 -3.27399e-006 -1.11029e-006 -1.08128e-006 -9.83879 0.797103 0.565965 5.15968e-006 -4.37175e-007 3.00001 -8.02898 -4.95145 -0.697674 173.59 -3.49195 2.61376 -180 7.01516e-015 178.796 176.089 5.27458 179.73 -4.1166e-006 -2.10886e-006 0.0617674 -18.3839 67.5532 19.1615 8.13449 25.2328 -3.48688 -174.337 -2.16671 0.243542 4.54188e-006 -4.6773e-006 -1.2593 -2.78123 -8.81453 0.515724 4.82388e-006 -4.96994e-006 -0.0970561 18.2198 67.1901 -18.8696 -8.13582 25.2327 3.48745 
29.8594 98.8434 -0.967522 0.970466 -4.44745 3.34841 0.0949384 -0.648995 0.249157 0.185848 2.70522 0.489135 0.180183 4.35028 0.486427 -0.522221 19.1385 -2.77296 -0.582019 -7.11428 -3.02764 74.3987 -0.58034 -2.07344 96.7103 27.8894 22.5949 2.04968e-005 -2.58426e-006 -5.72509e-007 8.67238 0.0670827 -0.664683 -8.55126e-006 7.49252e-006 -3.13912 8.02903 -4.95145 0.697649 -67.2322 4.62756 -1.36184 -101.044 17.9628 -14.3857 -3.27399e-006 -1.11029e-006 -1.08128e-006 -9.84405 0.787088 0.564322 5.15968e-006 -4.37175e-007 3.00001 -8.02898 -4.95145 -0.697674 173.591 -3.49521 2.61552 -180 7.01516e-015 178.796 176.087 5.27759 179.731 -4.1166e-006 -2.10886e-006 0.0617818 -18.3831 67.5523 19.1606 8.13449 25.2328 -3.48688 -174.332 -2.15713 0.234694 4.54188e-006 -4.6773e-006 -1.2593 -2.7874 -8.83906 0.514438 4.82388e-006 -4.96994e-006 -0.0970932 18.2236 67.1949 -18.8737 -8.13582 25.2327 3.48745 
29.861 98.842 -0.965242 0.970246 -4.44899 3.35265 0.0957862 -0.648113 0.249328 0.187308 2.70699 0.489485 0.18164 4.35204 0.486752 -0.529415 19.1474 -2.77354 -0.57341 -7.1187 -3.02929 74.383 -0.584428 -2.07363 96.7121 27.8577 22.6214 2.04968e-005 -2.58426e-006 -5.72509e-007 8.66097 0.0670295 -0.664656 -8.55126e-006 7.49252e-006 -3.13912 8.02903 -4.95145 0.697649 -67.2337 4.63088 -1.36329 -101.039 17.9357 -14.394 -3.27399e-006 -1.11029e-006 -1.08128e-006 -9.84906 0.77705 0.562687 5.15968e-006 -4.37175e-007 3.00001 -8.02898 -4.95145 -0.697674 173.592 -3.49806 2.6175 -180 7.01516e-015 178.796 176.084 5.28104 179.731 -4.1166e-006 -2.10886e-006 0.061816 -18.3821 67.551 19.1595 8.13449 25.2328 -3.48688 -174.328 -2.14761 0.22639 4.54188e-006 -4.6773e-006 -1.2593 -2.79296 -8.8629 0.513332 4.82388e-006 -4.96994e-006 -0.0971814 18.2269 67.1991 -18.8773 -8.13582 25.2327 3.48745 
